<?xml version="1.0" encoding="UTF-8" standalone="no"?>
<!DOCTYPE svg PUBLIC "-//W3C//DTD SVG 20010904//EN"
              "http://www.w3.org/TR/2001/REC-SVG-20010904/DTD/svg10.dtd">

<svg xmlns="http://www.w3.org/2000/svg"
     width="14.2222in" height="21.3333in"
     viewBox="0 0 1024 1536">
  <path id="Back_Thighs"
        fill="none" stroke="black" stroke-width="1"
        d="M 757.19,829.69
           C 757.19,829.69 755.06,863.31 755.06,863.31
             755.06,863.31 750.62,902.69 750.62,902.69
             750.62,902.69 746.88,934.56 746.88,934.56
             746.88,934.56 744.19,971.00 744.19,971.00
             744.19,971.00 742.94,997.31 742.94,997.31
             742.94,997.31 742.00,1020.25 742.00,1020.25
             742.00,1020.25 659.91,1019.82 659.91,1019.82
             659.91,1019.82 658.25,1003.00 658.25,1003.00
             658.25,1003.00 653.25,968.00 653.25,968.00
             653.25,968.00 646.25,921.75 646.25,921.75
             646.25,921.75 640.25,868.50 640.25,868.50
             640.25,868.50 638.00,819.00 638.00,819.00
             638.00,819.00 757.45,819.00 757.45,819.00
             757.45,819.00 757.19,829.69 757.19,829.69 Z
           M 892.75,843.62
           C 892.75,843.62 889.88,883.62 889.88,883.62
             889.88,883.62 882.55,943.45 882.55,943.45
             882.55,943.45 875.73,987.64 875.73,987.64
             875.73,987.64 871.91,1020.09 871.91,1020.09
             871.91,1020.09 789.62,1019.88 789.62,1019.88
             789.62,1019.88 788.50,984.25 788.50,984.25
             788.50,984.25 786.25,946.25 786.25,946.25
             786.25,946.25 782.50,911.25 782.50,911.25
             782.50,911.25 777.00,865.50 777.00,865.50
             777.00,865.50 774.18,819.00 774.18,819.00
             774.18,819.00 893.45,819.00 893.45,819.00
             893.45,819.00 892.75,843.62 892.75,843.62 Z" />
</svg>
