<?xml version="1.0" encoding="UTF-8" standalone="no"?>
<!DOCTYPE svg PUBLIC "-//W3C//DTD SVG 20010904//EN"
              "http://www.w3.org/TR/2001/REC-SVG-20010904/DTD/svg10.dtd">

<svg xmlns="http://www.w3.org/2000/svg"
     width="14.2222in" height="21.3333in"
     viewBox="0 0 1024 1536">
  <path id="Back_Shoulders"
        fill="none" stroke="black" stroke-width="1"
        d="M 637.75,369.25
           C 637.75,369.25 621.00,376.00 621.00,376.00
             621.00,376.00 608.00,389.50 608.00,389.50
             608.00,389.50 599.75,405.75 599.75,405.75
             599.75,405.75 595.25,427.00 595.50,427.00
             595.75,427.00 595.25,453.25 595.25,453.25
             595.25,453.25 594.50,475.00 594.50,475.00
             594.50,475.00 648.00,475.25 648.00,475.25
             648.00,475.25 642.82,446.18 642.82,446.18
             642.82,446.18 660.00,361.12 660.00,361.12
             660.00,361.12 637.75,369.25 637.75,369.25 Z
           M 879.82,364.36
           C 879.82,364.36 898.73,370.00 898.73,370.00
             898.73,370.00 916.73,381.64 916.73,381.64
             916.73,381.64 926.00,392.91 926.00,392.91
             926.00,392.91 933.82,411.82 933.82,411.82
             933.82,411.82 936.73,433.82 936.73,433.82
             936.73,433.82 936.91,475.09 936.91,475.09
             936.91,475.09 883.82,474.91 883.82,474.91
             883.82,474.91 888.00,446.38 888.00,446.38
             888.00,446.38 871.00,360.96 871.00,360.96
             871.00,360.96 879.82,364.36 879.82,364.36 Z" />
</svg>
