<?xml version="1.0" encoding="UTF-8" standalone="no"?>
<!DOCTYPE svg PUBLIC "-//W3C//DTD SVG 20010904//EN"
              "http://www.w3.org/TR/2001/REC-SVG-20010904/DTD/svg10.dtd">

<svg xmlns="http://www.w3.org/2000/svg"
     width="14.2222in" height="21.3333in"
     viewBox="0 0 1024 1536">
  <path id="Back_Knees"
        fill="none" stroke="black" stroke-width="1"
        d="M 740.55,1050.55
           C 740.73,1050.55 735.82,1069.27 735.82,1069.27
             735.82,1069.27 733.27,1084.55 733.27,1084.55
             733.27,1084.55 655.64,1084.91 655.64,1084.91
             655.64,1084.91 658.73,1070.18 658.73,1070.18
             658.73,1070.18 660.91,1045.45 660.91,1045.45
             660.91,1045.45 659.75,1020.00 659.75,1020.00
             659.75,1020.00 741.75,1020.00 741.75,1020.00
             741.75,1020.00 740.36,1050.55 740.55,1050.55 Z
           M 790.00,1020.00
           C 790.00,1020.00 872.00,1020.00 872.00,1020.00
             872.00,1020.00 871.12,1055.75 871.12,1055.75
             871.12,1055.75 875.00,1084.62 875.00,1084.62
             875.00,1084.62 798.88,1084.75 798.88,1084.75
             798.88,1084.75 794.62,1067.75 794.62,1067.75
             794.62,1067.75 791.75,1051.50 791.75,1051.50
             791.75,1051.50 790.25,1032.50 790.25,1032.38
             790.25,1032.25 790.00,1020.00 790.00,1020.00 Z" />
</svg>
