<?xml version="1.0" encoding="UTF-8" standalone="no"?>
<!DOCTYPE svg PUBLIC "-//W3C//DTD SVG 20010904//EN"
              "http://www.w3.org/TR/2001/REC-SVG-20010904/DTD/svg10.dtd">

<svg xmlns="http://www.w3.org/2000/svg"
     width="14.2222in" height="21.3333in"
     viewBox="0 0 1024 1536">
  <path id="Back_Forearms"
        fill="none" stroke="black" stroke-width="1"
        d="M 636.00,623.50
           C 636.00,623.50 631.82,647.09 631.82,647.09
             631.82,647.09 611.45,723.09 611.45,722.91
             611.45,722.73 601.64,769.09 601.64,769.09
             601.64,769.09 563.00,769.00 563.00,769.00
             563.00,769.00 564.33,752.67 564.33,752.67
             564.33,752.67 570.67,668.67 570.67,668.67
             570.67,668.67 575.33,623.33 575.33,623.33
             575.33,623.33 584.75,582.00 584.75,582.00
             584.75,582.00 608.19,595.00 608.19,595.00
             608.19,595.00 638.06,595.00 638.06,595.00
             638.06,595.00 636.00,623.50 636.00,623.50 Z
           M 893.00,595.00
           C 893.00,595.00 921.09,595.00 921.09,595.00
             921.09,595.00 946.78,582.00 946.78,582.00
             946.78,582.00 955.00,618.25 955.00,618.25
             955.00,618.25 961.00,664.00 961.00,664.00
             961.00,664.00 965.75,732.00 965.75,732.00
             965.75,732.00 969.50,769.00 969.50,769.00
             969.50,769.00 930.25,769.50 930.25,769.50
             930.25,769.50 925.75,745.00 925.75,745.00
             925.75,745.00 915.50,704.25 915.50,704.25
             915.50,704.25 904.00,665.50 904.00,665.50
             904.00,665.50 897.25,639.50 897.25,639.50
             897.25,639.50 893.00,595.00 893.00,595.00 Z" />
</svg>
