<?xml version="1.0" encoding="UTF-8" standalone="no"?>
<!DOCTYPE svg PUBLIC "-//W3C//DTD SVG 20010904//EN"
              "http://www.w3.org/TR/2001/REC-SVG-20010904/DTD/svg10.dtd">

<svg xmlns="http://www.w3.org/2000/svg"
     width="14.2222in" height="21.3333in"
     viewBox="0 0 1024 1536">
  <path id="Back_HeadTop"
        fill="none" stroke="black" stroke-width="1"
        d="M 828.25,190.12
           C 828.25,190.12 699.38,190.12 699.38,190.12
             699.38,190.12 700.88,169.00 700.88,169.00
             700.88,169.00 706.38,152.75 706.38,152.75
             706.38,152.75 718.88,137.62 718.88,137.62
             718.88,137.62 739.50,125.00 739.50,125.00
             739.50,125.00 754.12,122.00 754.12,122.00
             754.12,122.00 775.75,122.12 775.75,122.12
             775.75,122.12 791.62,126.00 791.62,126.00
             791.62,126.00 805.50,133.75 805.50,133.75
             805.50,133.75 817.75,145.75 817.75,145.75
             817.75,145.75 824.00,158.00 824.00,158.00
             824.00,158.00 828.25,175.50 828.25,175.50
             828.25,175.50 828.25,190.12 828.25,190.12 Z" />
</svg>
