<?xml version="1.0" encoding="UTF-8" standalone="no"?>
<!DOCTYPE svg PUBLIC "-//W3C//DTD SVG 20010904//EN"
              "http://www.w3.org/TR/2001/REC-SVG-20010904/DTD/svg10.dtd">

<svg xmlns="http://www.w3.org/2000/svg"
     width="14.2222in" height="21.3333in"
     viewBox="0 0 1024 1536">
  <path id="Back_Feet"
        fill="none" stroke="black" stroke-width="1"
        d="M 723.64,1334.27
           C 723.64,1334.27 721.09,1344.55 721.09,1344.55
             721.09,1344.55 721.82,1356.64 721.82,1356.73
             721.82,1356.82 724.82,1379.00 724.82,1379.00
             724.82,1379.00 725.09,1389.64 725.09,1389.64
             725.09,1389.64 722.18,1396.64 722.18,1396.64
             722.18,1396.64 712.64,1404.27 712.64,1404.45
             712.64,1404.64 703.09,1406.09 703.00,1406.00
             702.91,1405.91 689.64,1406.36 689.64,1406.36
             689.64,1406.36 677.55,1402.09 677.55,1402.09
             677.55,1402.09 670.09,1395.18 670.09,1395.18
             670.09,1395.18 666.64,1388.73 666.64,1388.73
             666.64,1388.73 654.27,1381.82 654.27,1381.82
             654.27,1381.82 650.45,1375.82 650.45,1375.82
             650.45,1375.82 652.18,1368.27 652.18,1368.27
             652.18,1368.27 660.55,1361.00 660.55,1360.91
             660.55,1360.82 669.00,1354.18 669.00,1354.18
             669.00,1354.18 672.18,1343.64 672.09,1343.64
             672.00,1343.64 673.00,1326.00 673.00,1326.00
             673.00,1326.00 723.75,1326.00 724.00,1326.00
             724.25,1326.00 723.64,1334.27 723.64,1334.27 Z
           M 859.62,1339.75
           C 859.62,1339.75 859.88,1349.38 859.88,1349.38
             859.88,1349.38 866.88,1357.88 866.88,1357.88
             866.88,1357.88 874.00,1363.50 874.00,1363.50
             874.00,1363.50 881.00,1370.00 881.00,1370.00
             881.00,1370.00 881.12,1376.88 881.12,1376.88
             881.12,1376.88 878.75,1381.38 878.75,1381.38
             878.75,1381.38 869.88,1386.38 869.88,1386.38
             869.88,1386.38 864.62,1388.75 864.50,1388.88
             864.38,1389.00 859.75,1397.62 859.75,1397.62
             859.75,1397.62 850.00,1404.12 850.00,1404.12
             850.00,1404.12 840.75,1405.75 840.75,1405.75
             840.75,1405.75 826.62,1405.25 826.38,1405.25
             826.12,1405.25 816.88,1403.00 816.88,1402.88
             816.88,1402.75 810.75,1398.00 810.75,1398.00
             810.75,1398.00 808.25,1392.38 808.25,1392.38
             808.25,1392.38 808.50,1376.25 808.50,1376.25
             808.50,1376.25 810.00,1360.25 810.00,1360.25
             810.00,1360.25 811.38,1344.38 811.38,1344.38
             811.38,1344.38 809.38,1338.12 809.38,1338.12
             809.38,1338.12 808.25,1326.00 808.25,1326.00
             808.25,1326.00 859.25,1326.00 859.25,1326.00
             859.25,1326.00 859.62,1339.75 859.62,1339.75 Z" />
</svg>
