<?xml version="1.0" encoding="UTF-8" standalone="no"?>
<!DOCTYPE svg PUBLIC "-//W3C//DTD SVG 20010904//EN"
              "http://www.w3.org/TR/2001/REC-SVG-20010904/DTD/svg10.dtd">

<svg xmlns="http://www.w3.org/2000/svg"
     width="14.2222in" height="21.3333in"
     viewBox="0 0 1024 1536">
  <path id="Back_Legs"
        fill="none" stroke="black" stroke-width="1"
        d="M 732.55,1109.09
           C 732.55,1109.09 736.00,1131.09 736.00,1131.09
             736.00,1131.09 737.45,1145.45 737.45,1145.45
             737.45,1145.45 737.64,1174.55 737.64,1174.55
             737.64,1174.55 733.09,1197.27 733.09,1197.27
             733.09,1197.27 726.91,1233.09 726.91,1233.09
             726.91,1233.09 722.82,1263.64 722.82,1263.64
             722.82,1263.64 720.00,1307.91 720.00,1307.91
             720.00,1307.91 722.36,1317.91 722.36,1317.91
             722.36,1317.91 723.00,1325.91 723.00,1325.91
             723.00,1325.91 673.64,1326.00 673.45,1326.00
             673.27,1326.00 674.73,1314.00 674.73,1314.00
             674.73,1314.00 672.55,1293.09 672.55,1293.09
             672.55,1293.09 669.45,1274.00 669.45,1274.00
             669.45,1274.00 665.27,1250.36 665.27,1250.36
             665.27,1250.36 660.36,1226.55 660.36,1226.55
             660.36,1226.55 654.36,1196.55 654.36,1196.55
             654.36,1196.55 650.18,1168.91 650.18,1168.91
             650.18,1168.91 648.91,1138.36 648.91,1138.36
             648.91,1138.36 651.64,1109.82 651.64,1109.82
             651.64,1109.82 656.00,1085.00 656.00,1085.00
             656.00,1085.00 732.75,1085.00 732.75,1085.00
             732.75,1085.00 732.55,1109.09 732.55,1109.09 Z
           M 877.62,1098.50
           C 877.62,1098.50 880.50,1120.25 880.50,1120.25
             880.50,1120.25 882.00,1132.50 882.00,1132.50
             882.00,1132.50 881.62,1164.25 881.62,1164.25
             881.62,1164.25 879.75,1183.00 879.75,1183.00
             879.75,1183.00 874.25,1210.75 874.25,1210.75
             874.25,1210.75 870.75,1231.12 870.75,1231.12
             870.75,1231.12 864.25,1264.38 864.25,1264.38
             864.25,1264.38 859.50,1294.25 859.50,1294.25
             859.50,1294.25 857.38,1315.38 857.38,1315.38
             857.38,1315.38 858.75,1326.00 858.75,1326.00
             858.75,1326.00 809.00,1326.22 809.00,1326.09
             809.00,1325.97 811.25,1306.38 811.25,1306.38
             811.25,1306.38 811.88,1291.38 811.88,1291.38
             811.88,1291.38 810.62,1270.88 810.62,1270.88
             810.62,1270.88 807.88,1251.12 807.88,1251.12
             807.88,1251.12 804.25,1228.12 804.25,1228.12
             804.25,1228.12 799.62,1200.00 799.62,1200.00
             799.62,1200.00 794.38,1172.75 794.38,1172.75
             794.38,1172.75 794.50,1146.12 794.50,1146.12
             794.50,1146.12 796.00,1131.25 796.00,1131.12
             796.00,1131.00 797.88,1117.62 797.88,1117.50
             797.88,1117.38 799.88,1104.62 799.75,1104.62
             799.62,1104.62 799.25,1085.00 799.25,1085.00
             799.25,1085.00 875.50,1085.00 875.50,1085.00
             875.50,1085.00 877.62,1098.50 877.62,1098.50 Z" />
</svg>
