<?xml version="1.0" encoding="UTF-8" standalone="no"?>
<!DOCTYPE svg PUBLIC "-//W3C//DTD SVG 20010904//EN"
              "http://www.w3.org/TR/2001/REC-SVG-20010904/DTD/svg10.dtd">

<svg xmlns="http://www.w3.org/2000/svg"
     width="14.2222in" height="21.3333in"
     viewBox="0 0 1024 1536">
  <path id="Back_HeadMiddle"
        fill="none" stroke="black" stroke-width="1"
        d="M 699.27,190.00
           C 699.27,190.00 828.18,190.00 828.18,190.00
             828.18,190.00 826.38,213.00 826.38,213.00
             826.38,213.00 829.00,209.38 829.00,209.38
             829.00,209.38 833.50,209.00 833.75,209.00
             834.00,209.00 838.62,210.88 838.62,210.88
             838.62,210.88 839.88,217.50 839.88,217.50
             839.88,217.50 840.00,223.50 840.00,223.50
             840.00,223.50 839.00,231.75 838.88,231.75
             838.75,231.75 835.62,241.12 835.62,241.12
             835.62,241.12 831.62,249.12 831.62,249.12
             831.62,249.12 827.25,253.62 827.25,253.62
             827.25,253.62 822.02,253.24 822.02,253.24
             822.02,253.24 706.84,253.50 706.84,253.50
             706.84,253.50 700.69,253.62 700.69,253.62
             700.69,253.62 697.97,251.19 697.94,251.16
             697.91,251.12 694.19,245.88 694.19,245.88
             694.19,245.88 691.50,238.00 691.50,238.00
             691.50,238.00 688.62,227.50 688.62,227.50
             688.62,227.50 688.62,216.25 688.62,216.25
             688.62,216.25 690.50,210.00 690.50,210.00
             690.50,210.00 695.62,208.88 695.62,208.88
             695.62,208.88 699.62,211.00 699.75,211.00
             699.88,211.00 700.00,200.38 700.00,200.38
             700.00,200.38 699.27,190.00 699.27,190.00 Z" />
</svg>
