<?xml version="1.0" encoding="UTF-8" standalone="no"?>
<!DOCTYPE svg PUBLIC "-//W3C//DTD SVG 20010904//EN"
              "http://www.w3.org/TR/2001/REC-SVG-20010904/DTD/svg10.dtd">

<svg xmlns="http://www.w3.org/2000/svg"
     width="14.2222in" height="21.3333in"
     viewBox="0 0 1024 1536">
  <path id="Back_Hands"
        fill="none" stroke="black" stroke-width="1"
        d="M 603.64,784.36
           C 603.64,784.36 606.18,795.09 606.18,795.09
             606.18,795.09 605.45,819.64 605.45,819.64
             605.45,819.64 602.73,837.27 602.73,837.27
             602.73,837.27 601.45,867.36 601.45,867.36
             601.45,867.36 599.64,887.64 599.64,887.64
             599.64,887.64 597.36,889.73 597.36,889.73
             597.36,889.73 594.00,889.18 593.91,889.18
             593.82,889.18 590.45,883.55 590.45,883.55
             590.45,883.55 589.27,866.91 589.27,866.91
             589.27,866.91 587.00,848.73 587.00,848.73
             587.00,848.73 581.55,891.73 581.55,891.73
             581.55,891.73 579.27,897.45 579.27,897.45
             579.27,897.45 577.45,900.27 577.45,900.27
             577.45,900.27 573.00,900.36 573.00,900.36
             573.00,900.36 570.18,895.55 570.18,895.55
             570.18,895.55 570.09,881.91 570.18,881.91
             570.27,881.91 571.27,858.09 571.27,858.09
             571.27,858.09 568.91,879.18 568.91,879.18
             568.91,879.18 564.82,894.09 564.82,894.09
             564.82,894.09 562.09,900.64 562.09,900.64
             562.09,900.64 557.55,902.91 557.36,902.91
             557.18,902.91 554.09,900.55 554.09,900.55
             554.09,900.55 552.82,891.82 552.82,891.73
             552.82,891.64 553.45,880.82 553.45,880.73
             553.45,880.64 554.64,871.91 554.64,871.91
             554.64,871.91 554.09,858.45 554.09,858.45
             554.09,858.45 549.55,872.91 549.55,872.91
             549.55,872.91 543.00,889.18 543.00,889.18
             543.00,889.18 538.00,891.73 538.00,891.73
             538.00,891.73 534.55,888.82 534.55,888.82
             534.55,888.82 533.82,882.73 533.82,882.73
             533.82,882.73 536.00,869.64 536.00,869.64
             536.00,869.64 540.55,849.09 540.55,849.09
             540.55,849.09 543.82,831.45 543.82,831.45
             543.82,831.45 539.27,835.82 539.27,835.82
             539.27,835.82 533.09,842.55 533.09,842.55
             533.09,842.55 524.73,845.64 524.73,845.64
             524.73,845.64 520.00,842.18 520.00,842.00
             520.00,841.82 520.00,837.45 520.00,837.45
             520.00,837.45 526.73,827.82 526.73,827.82
             526.73,827.82 534.18,812.36 534.18,812.36
             534.18,812.36 538.36,799.09 538.36,799.09
             538.36,799.09 547.45,785.82 547.45,785.82
             547.45,785.82 562.88,769.00 562.88,769.00
             562.88,769.00 601.62,769.00 601.62,769.00
             601.62,769.00 603.64,784.36 603.64,784.36 Z
           M 978.55,778.91
           C 978.55,778.91 987.55,789.36 987.55,789.36
             987.55,789.36 993.18,799.91 993.18,799.91
             993.18,799.91 998.64,815.27 998.64,815.27
             998.64,815.27 1006.09,828.27 1006.09,828.27
             1006.09,828.27 1010.55,834.91 1010.55,834.91
             1010.55,834.91 1008.73,841.55 1008.64,841.64
             1008.55,841.73 1002.91,841.91 1002.82,841.91
             1002.73,841.91 998.18,840.09 998.09,840.00
             998.00,839.91 992.64,834.45 992.64,834.45
             992.64,834.45 985.73,826.64 985.73,826.64
             985.73,826.64 987.45,836.45 987.45,836.45
             987.45,836.45 992.45,861.91 992.45,861.91
             992.45,861.91 996.09,881.00 996.09,881.00
             996.09,881.00 994.18,887.27 994.18,887.27
             994.18,887.27 992.09,888.55 992.09,888.55
             992.09,888.55 988.82,887.45 988.82,887.45
             988.82,887.45 985.91,883.82 985.91,883.82
             985.91,883.82 981.73,875.18 981.73,875.18
             981.73,875.18 979.88,865.50 979.88,865.50
             979.88,865.50 975.50,854.00 975.50,854.00
             975.50,854.00 975.12,862.75 975.12,862.75
             975.12,862.75 976.88,880.69 976.88,880.69
             976.88,880.69 977.31,894.50 977.31,894.50
             977.31,894.50 974.62,898.75 974.62,898.81
             974.62,898.88 971.50,899.31 971.44,899.31
             971.38,899.31 967.94,897.94 967.88,897.88
             967.81,897.81 966.31,892.88 966.31,892.88
             966.31,892.88 962.91,881.45 962.91,881.45
             962.91,881.45 960.36,866.55 960.36,866.55
             960.36,866.55 960.18,876.00 960.18,876.00
             960.18,876.00 959.38,896.31 959.38,896.38
             959.38,896.44 956.25,897.94 956.25,897.94
             956.25,897.94 952.75,897.56 952.69,897.44
             952.62,897.31 950.06,893.56 949.94,893.50
             949.81,893.44 948.62,886.56 948.62,886.56
             948.62,886.56 944.56,863.25 944.56,863.25
             944.56,863.25 943.12,843.38 943.12,843.38
             943.12,843.38 941.25,856.00 941.25,856.00
             941.25,856.00 939.81,878.62 939.81,878.62
             939.81,878.62 937.25,885.88 937.25,885.88
             937.25,885.88 933.62,886.62 933.56,886.62
             933.50,886.62 930.19,883.94 930.19,883.94
             930.19,883.94 928.55,878.18 928.55,878.18
             928.55,878.18 927.27,836.00 927.27,836.00
             927.27,836.00 924.73,818.18 924.55,818.00
             924.36,817.82 924.09,800.18 924.09,800.09
             924.09,800.00 925.45,786.64 925.45,786.64
             925.45,786.64 930.27,769.00 930.27,769.00
             930.27,769.00 970.00,769.00 970.00,769.00
             970.00,769.00 978.55,778.91 978.55,778.91 Z" />
</svg>
