<?xml version="1.0" encoding="UTF-8" standalone="no"?>
<!DOCTYPE svg PUBLIC "-//W3C//DTD SVG 20010904//EN"
              "http://www.w3.org/TR/2001/REC-SVG-20010904/DTD/svg10.dtd">

<svg xmlns="http://www.w3.org/2000/svg"
     width="14.2222in" height="21.3333in"
     viewBox="0 0 1024 1536">
  <path id="Back_UpperArms"
        fill="none" stroke="black" stroke-width="1"
        d="M 651.64,502.55
           C 651.64,502.55 637.75,594.88 637.75,594.88
             637.75,594.88 608.25,594.62 608.25,594.62
             608.25,594.62 584.88,582.38 584.88,582.38
             584.88,582.38 594.45,475.00 594.45,475.00
             594.45,475.00 647.73,475.00 647.73,475.00
             647.73,475.00 651.64,502.55 651.64,502.55 Z
           M 883.36,475.00
           C 883.36,475.00 937.00,475.00 937.00,475.00
             937.00,475.00 946.45,582.18 946.45,582.18
             946.45,582.18 923.06,594.25 923.12,594.25
             923.19,594.25 892.94,595.12 892.94,595.12
             892.94,595.12 884.36,538.73 884.36,538.73
             884.36,538.73 879.64,504.00 879.64,504.00
             879.64,504.00 883.36,475.00 883.36,475.00 Z" />
</svg>
