<?xml version="1.0" encoding="UTF-8" standalone="no"?>
<!DOCTYPE svg PUBLIC "-//W3C//DTD SVG 20010904//EN"
              "http://www.w3.org/TR/2001/REC-SVG-20010904/DTD/svg10.dtd">

<svg xmlns="http://www.w3.org/2000/svg"
     width="14.2222in" height="21.3333in"
     viewBox="0 0 1024 1536">
  <path id="Back_UpperTorso"
        fill="none" stroke="black" stroke-width="1"
        d="M 871.64,361.00
           C 871.64,361.00 888.36,446.55 888.36,446.55
             888.36,446.55 883.62,475.00 883.62,475.00
             883.62,475.00 856.50,474.38 856.50,474.38
             856.50,474.38 842.73,425.09 842.73,425.09
             842.73,425.09 809.27,420.00 809.27,420.00
             809.27,420.00 718.75,420.12 718.75,420.12
             718.75,420.12 688.00,425.12 688.00,425.12
             688.00,425.12 674.00,475.38 674.00,475.38
             674.00,475.38 647.25,475.00 647.25,475.00
             647.25,475.00 642.91,445.82 642.91,445.82
             642.91,445.82 660.38,361.12 660.38,361.12
             660.38,361.12 683.64,352.82 683.64,352.82
             683.64,352.82 712.55,339.00 712.55,339.00
             712.55,339.00 817.09,339.00 817.09,339.00
             817.09,339.00 871.64,361.00 871.64,361.00 Z" />
</svg>
