<?xml version="1.0" encoding="UTF-8" standalone="no"?>
<!DOCTYPE svg PUBLIC "-//W3C//DTD SVG 20010904//EN"
              "http://www.w3.org/TR/2001/REC-SVG-20010904/DTD/svg10.dtd">

<svg xmlns="http://www.w3.org/2000/svg"
     width="14.2222in" height="21.3333in"
     viewBox="0 0 1024 1536">
  <path id="Back_Buttocks"
        fill="none" stroke="black" stroke-width="1"
        d="M 889.00,747.38
           C 889.00,747.38 893.25,785.88 893.25,785.88
             893.25,785.88 893.73,819.18 893.73,819.18
             893.73,819.18 774.06,819.00 774.06,819.00
             774.06,819.00 774.25,795.38 774.25,795.38
             774.25,795.38 765.69,788.50 765.69,788.50
             765.69,788.50 762.69,790.94 762.69,790.94
             762.69,790.94 758.31,795.12 758.31,795.12
             758.31,795.12 757.75,799.56 757.75,799.56
             757.75,799.56 757.44,818.94 757.44,818.94
             757.44,818.94 637.75,819.00 637.75,819.00
             637.75,819.00 638.25,789.75 638.25,789.75
             638.25,789.75 638.75,776.25 638.75,776.25
             638.75,776.25 642.00,742.50 642.00,742.50
             642.00,742.50 649.00,696.00 649.00,696.00
             649.00,696.00 881.67,696.00 881.67,696.00
             881.67,696.00 889.00,747.38 889.00,747.38 Z" />
</svg>
