<?xml version="1.0" encoding="UTF-8" standalone="no"?>
<!DOCTYPE svg PUBLIC "-//W3C//DTD SVG 20010904//EN"
              "http://www.w3.org/TR/2001/REC-SVG-20010904/DTD/svg10.dtd">

<svg xmlns="http://www.w3.org/2000/svg"
     width="14.2222in" height="21.3333in"
     viewBox="0 0 1024 1536">
  <path id="Back_MiddleTorso"
        fill="none" stroke="black" stroke-width="1"
        d="M 873.00,530.75
           C 873.00,530.75 868.00,568.75 868.00,568.75
             868.00,568.75 867.04,594.00 867.04,594.00
             867.04,594.00 664.36,594.00 664.36,594.00
             664.36,594.00 663.27,579.45 663.27,579.45
             663.27,579.45 655.45,512.55 655.45,512.55
             655.45,512.55 647.75,475.00 647.75,475.00
             647.75,475.00 674.00,475.00 674.00,475.00
             674.00,475.00 688.00,425.00 688.00,425.00
             688.00,425.00 721.00,420.00 721.00,420.00
             721.00,420.00 808.00,420.00 808.00,420.00
             808.00,420.00 843.00,425.00 843.00,425.00
             843.00,425.00 856.55,475.00 856.55,475.00
             856.55,475.00 883.62,475.00 883.62,475.00
             883.62,475.00 873.00,530.75 873.00,530.75 Z" />
</svg>
