<?xml version="1.0" encoding="UTF-8" standalone="no"?>
<!DOCTYPE svg PUBLIC "-//W3C//DTD SVG 20010904//EN"
              "http://www.w3.org/TR/2001/REC-SVG-20010904/DTD/svg10.dtd">

<svg xmlns="http://www.w3.org/2000/svg"
     width="14.2222in" height="21.3333in"
     viewBox="0 0 1024 1536">
  <path id="Front_Jaw"
        fill="none" stroke="black" stroke-width="1"
        d="M 202.50,252.00
           C 202.50,252.00 319.09,252.00 319.09,252.00
             319.09,252.00 316.55,264.55 316.55,264.55
             316.55,264.55 310.55,277.45 310.55,277.45
             310.55,277.45 302.91,289.27 302.91,289.27
             302.91,289.27 294.36,296.55 294.36,296.55
             294.36,296.55 281.82,303.82 281.82,303.82
             281.82,303.82 272.18,307.82 272.18,307.82
             272.18,307.82 254.36,308.55 254.36,308.55
             254.36,308.55 238.91,304.00 238.91,304.00
             238.91,304.00 225.27,295.09 225.27,295.09
             225.27,295.09 219.64,290.36 219.64,290.36
             219.64,290.36 212.55,280.73 212.55,280.73
             212.55,280.73 204.55,265.64 204.55,265.64
             204.55,265.64 202.50,252.00 202.50,252.00 Z" />
</svg>
