<?xml version="1.0" encoding="UTF-8" standalone="no"?>
<!DOCTYPE svg PUBLIC "-//W3C//DTD SVG 20010904//EN"
              "http://www.w3.org/TR/2001/REC-SVG-20010904/DTD/svg10.dtd">

<svg xmlns="http://www.w3.org/2000/svg"
     width="14.2222in" height="21.3333in"
     viewBox="0 0 1024 1536">
  <path id="Front_Forehead"
        fill="none" stroke="black" stroke-width="1"
        d="M 325.00,172.25
           C 325.00,172.25 320.75,157.00 320.75,157.00
             320.75,157.00 307.75,137.75 307.75,137.75
             307.75,137.75 289.50,124.75 289.50,124.75
             289.50,124.75 273.75,120.75 273.75,120.75
             273.75,120.75 256.75,120.50 256.75,120.50
             256.75,120.50 239.00,123.50 239.00,123.50
             239.00,123.50 219.00,133.50 219.00,133.50
             219.00,133.50 204.50,148.75 204.50,148.75
             204.50,148.75 195.75,172.25 195.75,172.25
             195.75,172.25 196.25,188.00 196.25,188.00
             196.25,188.00 326.00,188.00 326.00,188.00
             326.00,188.00 325.00,172.25 325.00,172.25 Z" />
</svg>
