<?xml version="1.0" encoding="UTF-8" standalone="no"?>
<!DOCTYPE svg PUBLIC "-//W3C//DTD SVG 20010904//EN"
              "http://www.w3.org/TR/2001/REC-SVG-20010904/DTD/svg10.dtd">

<svg xmlns="http://www.w3.org/2000/svg"
     width="14.2222in" height="21.3333in"
     viewBox="0 0 1024 1536">
  <path id="Front_Knees"
        fill="none" stroke="black" stroke-width="1"
        d="M 285.12,1021.00
           C 285.12,1021.00 365.33,1021.00 365.33,1021.00
             365.33,1021.00 365.00,1042.75 365.00,1042.75
             365.00,1042.75 366.75,1070.00 366.75,1070.00
             366.75,1070.00 369.50,1084.88 369.50,1084.88
             369.50,1084.88 294.06,1085.25 294.06,1085.25
             294.06,1085.25 291.44,1072.62 291.44,1072.62
             291.44,1072.62 288.00,1059.12 288.00,1059.12
             288.00,1059.12 286.25,1048.25 286.25,1048.25
             286.25,1048.25 285.12,1021.00 285.12,1021.00 Z
           M 236.75,1021.00
           C 236.75,1021.00 156.12,1021.00 156.12,1021.00
             156.12,1021.00 156.75,1042.25 156.75,1042.25
             156.75,1042.25 156.62,1061.25 156.62,1061.25
             156.62,1061.25 152.75,1085.38 152.75,1085.38
             152.75,1085.38 227.38,1084.88 227.50,1084.88
             227.62,1084.88 230.62,1070.38 230.62,1070.38
             230.62,1070.38 233.75,1059.50 233.75,1059.38
             233.75,1059.25 236.00,1039.50 236.00,1039.50
             236.00,1039.50 236.75,1021.00 236.75,1021.00 Z" />
</svg>
