<?xml version="1.0" encoding="UTF-8" standalone="no"?>
<!DOCTYPE svg PUBLIC "-//W3C//DTD SVG 20010904//EN"
              "http://www.w3.org/TR/2001/REC-SVG-20010904/DTD/svg10.dtd">

<svg xmlns="http://www.w3.org/2000/svg"
     width="14.2222in" height="21.3333in"
     viewBox="0 0 1024 1536">
  <path id="Front_Neck"
        fill="none" stroke="black" stroke-width="1"
        d="M 210.91,339.00
           C 210.91,339.00 309.50,339.00 309.50,339.00
             309.50,339.00 304.18,334.36 304.18,334.36
             304.18,334.36 302.18,321.64 302.36,321.45
             302.55,321.27 302.36,289.45 302.36,289.45
             302.36,289.45 294.73,296.36 294.73,296.36
             294.73,296.36 280.73,304.36 280.73,304.36
             280.73,304.36 271.09,308.00 271.09,308.00
             271.09,308.00 254.36,308.18 254.36,308.18
             254.36,308.18 239.09,303.82 239.09,303.82
             239.09,303.82 224.91,294.55 224.91,294.55
             224.91,294.55 219.82,290.18 219.82,290.18
             219.82,290.18 219.09,304.36 219.09,304.36
             219.09,304.36 218.91,322.55 218.91,322.55
             218.91,322.55 217.27,331.82 217.27,331.82
             217.27,331.82 210.91,339.00 210.91,339.00 Z" />
</svg>
