<?xml version="1.0" encoding="UTF-8" standalone="no"?>
<!DOCTYPE svg PUBLIC "-//W3C//DTD SVG 20010904//EN"
              "http://www.w3.org/TR/2001/REC-SVG-20010904/DTD/svg10.dtd">

<svg xmlns="http://www.w3.org/2000/svg"
     width="14.2222in" height="21.3333in"
     viewBox="0 0 1024 1536">
  <path id="Front_MiddleFace"
        fill="none" stroke="black" stroke-width="1"
        d="M 196.25,206.56
           C 196.25,206.56 196.25,188.06 196.25,188.06
             196.25,188.06 325.97,188.03 325.97,188.03
             325.97,188.03 325.50,208.38 325.50,208.38
             325.50,208.38 329.25,207.12 329.38,207.12
             329.50,207.12 333.50,208.38 333.50,208.38
             333.50,208.38 336.50,213.62 336.50,213.62
             336.50,213.62 336.88,227.00 336.88,227.00
             336.88,227.00 333.50,238.25 333.50,238.38
             333.50,238.50 330.62,245.00 330.62,245.00
             330.62,245.00 326.62,252.12 326.62,252.12
             326.62,252.12 319.03,252.00 319.03,252.00
             319.03,252.00 202.41,251.97 202.41,251.97
             202.41,251.97 198.27,251.73 198.27,251.73
             198.27,251.73 193.09,249.36 193.09,249.36
             193.09,249.36 187.00,235.00 187.00,235.00
             187.00,235.00 184.82,224.73 184.82,224.73
             184.82,224.73 185.64,212.36 185.55,212.64
             185.45,212.91 188.27,208.00 188.27,208.00
             188.27,208.00 196.25,206.56 196.25,206.56 Z" />
</svg>
