<?xml version="1.0" encoding="UTF-8" standalone="no"?>
<!DOCTYPE svg PUBLIC "-//W3C//DTD SVG 20010904//EN"
              "http://www.w3.org/TR/2001/REC-SVG-20010904/DTD/svg10.dtd">

<svg xmlns="http://www.w3.org/2000/svg"
     width="14.2222in" height="21.3333in"
     viewBox="0 0 1024 1536">
  <path id="Front_Legs"
        fill="none" stroke="black" stroke-width="1"
        d="M 372.18,1107.45
           C 372.18,1107.45 373.64,1122.55 373.64,1122.55
             373.64,1122.55 373.82,1157.45 373.82,1157.45
             373.82,1157.45 372.18,1167.82 372.18,1167.82
             372.18,1167.82 369.27,1191.27 369.45,1191.27
             369.64,1191.27 364.50,1220.50 364.50,1220.50
             364.50,1220.50 353.75,1289.75 353.75,1289.75
             353.75,1289.75 352.69,1301.31 352.69,1301.31
             352.69,1301.31 353.12,1315.94 353.12,1316.00
             353.12,1316.06 354.94,1326.56 354.94,1326.56
             354.94,1326.56 354.38,1336.31 354.38,1336.31
             354.38,1336.31 304.88,1336.50 304.88,1336.50
             304.88,1336.50 303.75,1327.12 303.75,1327.12
             303.75,1327.12 305.00,1318.50 305.00,1318.50
             305.00,1318.50 306.88,1302.75 306.88,1302.75
             306.88,1302.75 305.50,1279.50 305.50,1279.50
             305.50,1279.50 302.75,1253.75 302.75,1253.75
             302.75,1253.75 299.12,1225.88 299.12,1225.88
             299.12,1225.88 294.00,1197.88 294.00,1197.88
             294.00,1197.88 289.62,1171.62 289.62,1171.62
             289.62,1171.62 289.88,1137.38 289.88,1137.25
             289.88,1137.12 291.62,1120.75 291.62,1120.75
             291.62,1120.75 294.38,1099.00 294.38,1098.88
             294.38,1098.75 294.00,1085.00 294.00,1085.00
             294.00,1085.00 369.00,1085.00 369.00,1085.00
             369.00,1085.00 372.18,1107.45 372.18,1107.45 Z
           M 221.09,1237.09
           C 221.09,1237.09 226.73,1202.36 226.73,1202.36
             226.73,1202.36 231.64,1175.64 231.64,1175.64
             231.64,1175.64 233.27,1160.73 233.27,1160.73
             233.27,1160.73 232.73,1139.82 232.73,1139.82
             232.73,1139.82 228.73,1113.45 228.73,1113.45
             228.73,1113.45 227.09,1100.91 227.09,1100.91
             227.09,1100.91 227.50,1085.00 227.50,1085.00
             227.50,1085.00 152.50,1085.00 152.50,1085.00
             152.50,1085.00 147.09,1122.91 147.09,1122.91
             147.09,1122.91 147.27,1156.73 147.27,1156.73
             147.27,1156.73 150.18,1180.00 150.18,1180.18
             150.18,1180.36 156.36,1218.55 156.36,1218.55
             156.36,1218.55 160.91,1248.73 160.91,1248.73
             160.91,1248.73 164.91,1276.00 164.91,1276.00
             164.91,1276.00 168.73,1297.09 168.73,1297.09
             168.73,1297.09 168.91,1308.18 168.91,1308.36
             168.91,1308.55 167.27,1317.82 167.27,1318.00
             167.27,1318.18 166.55,1327.82 166.55,1327.82
             166.55,1327.82 166.55,1336.18 166.55,1336.36
             166.55,1336.55 216.73,1336.00 216.73,1336.00
             216.73,1336.00 217.27,1326.55 217.27,1326.55
             217.27,1326.55 216.00,1312.00 216.00,1312.00
             216.00,1312.00 215.09,1299.09 215.09,1299.09
             215.09,1299.09 215.45,1285.64 215.45,1285.64
             215.45,1285.64 216.73,1274.36 216.73,1274.36
             216.73,1274.36 218.55,1256.18 218.55,1256.18" />
</svg>
