<?xml version="1.0" encoding="UTF-8" standalone="no"?>
<!DOCTYPE svg PUBLIC "-//W3C//DTD SVG 20010904//EN"
              "http://www.w3.org/TR/2001/REC-SVG-20010904/DTD/svg10.dtd">

<svg xmlns="http://www.w3.org/2000/svg"
     width="14.2222in" height="21.3333in"
     viewBox="0 0 1024 1536">
  <path id="Front_LowerTorso"
        fill="none" stroke="black" stroke-width="1"
        d="M 155.27,630.82
           C 155.27,630.91 365.56,631.12 365.56,631.12
             365.56,631.12 369.09,652.55 369.09,652.55
             369.09,652.55 372.91,678.36 372.91,678.36
             372.91,678.36 378.73,714.55 378.73,714.55
             378.73,714.55 383.27,751.09 383.09,750.91
             382.91,750.73 385.64,776.91 385.64,776.91
             385.64,776.91 386.55,797.09 386.55,797.09
             386.55,797.09 385.82,819.09 385.82,819.09
             385.82,819.09 308.00,819.09 308.00,819.09
             308.00,819.09 307.97,754.00 307.97,754.00
             307.97,754.00 212.97,754.06 212.97,754.06
             212.97,754.06 212.91,818.97 212.91,818.97
             212.91,818.97 134.94,819.22 134.94,819.25
             134.94,819.28 135.25,787.25 135.25,787.25
             135.25,787.25 137.88,752.75 137.88,752.75
             137.88,752.75 143.12,710.88 143.12,710.88
             143.12,710.88 146.25,689.75 146.25,689.75
             146.25,689.75 152.38,651.50 152.38,651.50
             152.38,651.50 155.27,630.73 155.27,630.82 Z" />
</svg>
