<?xml version="1.0" encoding="UTF-8" standalone="no"?>
<!DOCTYPE svg PUBLIC "-//W3C//DTD SVG 20010904//EN"
              "http://www.w3.org/TR/2001/REC-SVG-20010904/DTD/svg10.dtd">

<svg xmlns="http://www.w3.org/2000/svg"
     width="14.2222in" height="21.3333in"
     viewBox="0 0 1024 1536">
  <path id="Front_Shoulders"
        fill="none" stroke="black" stroke-width="1"
        d="M 133.09,370.00
           C 133.27,370.00 114.55,378.55 114.55,378.55
             114.55,378.55 104.36,390.00 104.18,390.00
             104.00,390.00 95.82,408.18 95.82,408.18
             95.82,408.18 92.00,429.27 92.00,429.27
             92.00,429.27 92.00,465.09 92.00,465.27
             92.00,465.45 90.91,475.00 90.91,475.00
             90.91,475.00 150.00,475.00 150.00,475.00
             150.00,475.00 150.00,364.55 150.00,364.55
             150.00,364.55 132.91,370.00 133.09,370.00 Z
           M 372.00,364.67
           C 372.00,364.67 372.00,475.00 372.00,475.00
             372.00,475.00 430.50,475.00 430.50,475.00
             430.50,475.00 430.18,434.55 430.18,434.55
             430.18,434.55 427.27,414.91 427.27,414.91
             427.27,414.91 424.00,404.91 424.00,404.91
             424.00,404.91 415.45,387.82 415.45,387.82
             415.45,387.82 400.00,374.73 400.00,374.73
             400.00,374.73 372.00,364.67 372.00,364.67 Z" />
</svg>
