<?xml version="1.0" encoding="UTF-8" standalone="no"?>
<!DOCTYPE svg PUBLIC "-//W3C//DTD SVG 20010904//EN"
              "http://www.w3.org/TR/2001/REC-SVG-20010904/DTD/svg10.dtd">

<svg xmlns="http://www.w3.org/2000/svg"
     width="14.2222in" height="21.3333in"
     viewBox="0 0 1024 1536">
  <path id="Front_Forearms"
        fill="none" stroke="black" stroke-width="1"
        d="M 136.00,606.91
           C 136.00,606.91 132.73,629.64 132.73,629.64
             132.73,629.64 126.55,658.00 126.55,658.00
             126.55,658.00 117.45,691.45 117.45,691.45
             117.45,691.45 107.45,726.91 107.45,726.91
             107.45,726.91 99.09,762.73 99.09,762.91
             99.09,763.09 97.27,772.91 97.27,772.91
             97.27,772.91 56.18,767.82 56.18,767.82
             56.18,767.82 59.27,753.82 59.27,753.82
             59.27,753.82 62.00,732.00 62.00,732.00
             62.00,732.00 65.64,693.45 65.64,693.45
             65.64,693.45 68.18,654.00 68.18,654.00
             68.18,654.00 69.64,641.64 69.64,641.64
             69.64,641.64 74.91,612.36 74.91,612.36
             74.91,612.36 79.88,593.00 79.88,593.00
             79.88,593.00 136.38,593.00 136.38,593.00
             136.38,593.00 136.00,606.91 136.00,606.91 Z
           M 446.18,611.45
           C 446.18,611.45 452.73,644.55 452.73,644.55
             452.73,644.55 454.36,664.73 454.36,664.73
             454.36,664.73 456.00,687.82 456.00,687.82
             456.00,687.82 458.55,718.36 458.55,718.36
             458.55,718.36 462.36,755.45 462.36,755.45
             462.36,755.45 464.18,765.64 464.36,765.64
             464.55,765.64 467.27,771.09 467.27,771.09
             467.27,771.09 425.27,776.73 425.27,776.73
             425.27,776.73 424.18,770.73 424.18,770.73
             424.18,770.73 419.82,751.45 419.82,751.45
             419.82,751.45 415.00,731.25 415.00,731.25
             415.00,731.25 404.00,693.50 404.00,693.50
             404.00,693.50 393.25,652.00 393.25,652.00
             393.25,652.00 386.25,616.00 386.25,616.00
             386.25,616.00 384.75,593.00 384.75,593.00
             384.75,593.00 441.25,593.00 441.25,593.00
             441.25,593.00 446.18,611.45 446.18,611.45 Z" />
</svg>
