<?xml version="1.0" encoding="UTF-8" standalone="no"?>
<!DOCTYPE svg PUBLIC "-//W3C//DTD SVG 20010904//EN"
              "http://www.w3.org/TR/2001/REC-SVG-20010904/DTD/svg10.dtd">

<svg xmlns="http://www.w3.org/2000/svg"
     width="14.2222in" height="21.3333in"
     viewBox="0 0 1024 1536">
  <path id="Front_MiddleTorso"
        fill="none" stroke="black" stroke-width="1"
        d="M 155.50,631.00
           C 155.50,631.00 365.57,631.00 365.57,631.00
             365.57,631.00 362.75,602.25 362.75,602.25
             362.75,602.25 362.75,583.00 362.75,583.00
             362.75,583.00 365.00,567.50 365.00,567.50
             365.00,567.50 370.50,528.50 370.50,528.50
             370.50,528.50 373.25,508.75 373.25,508.75
             373.25,508.75 371.75,474.50 371.75,474.50
             371.75,474.50 370.09,461.27 370.09,461.27
             370.09,461.27 363.36,447.27 363.36,447.27
             363.36,447.27 353.55,436.73 353.55,436.73
             353.55,436.73 338.18,426.27 338.18,426.27
             338.18,426.27 322.73,419.00 322.73,419.00
             322.73,419.00 304.27,413.73 304.27,413.73
             304.27,413.73 288.27,410.73 288.27,410.73
             288.27,410.73 270.36,408.91 270.36,408.91
             270.36,408.91 252.00,408.64 252.00,408.64
             252.00,408.64 237.62,409.50 237.62,409.50
             237.62,409.50 219.12,412.25 219.12,412.25
             219.12,412.25 209.19,414.44 209.19,414.44
             209.19,414.44 195.18,419.18 195.18,419.18
             195.18,419.18 178.55,427.09 178.55,427.09
             178.55,427.09 168.91,434.00 168.91,434.00
             168.91,434.00 161.64,441.18 161.64,441.18
             161.64,441.18 154.55,451.45 154.55,451.45
             154.55,451.45 150.73,462.00 150.73,462.00
             150.73,462.00 149.73,475.09 149.73,475.09
             149.73,475.09 148.75,511.62 148.75,511.62
             148.75,511.62 151.12,529.88 151.12,529.88
             151.12,529.88 154.73,559.09 154.73,559.09
             154.73,559.09 157.64,579.64 157.64,579.64
             157.64,579.64 158.55,590.55 158.55,590.55
             158.55,590.55 158.00,607.82 158.00,608.00
             158.00,608.18 155.50,631.00 155.50,631.00 Z" />
</svg>
