<?xml version="1.0" encoding="UTF-8" standalone="no"?>
<!DOCTYPE svg PUBLIC "-//W3C//DTD SVG 20010904//EN"
              "http://www.w3.org/TR/2001/REC-SVG-20010904/DTD/svg10.dtd">

<svg xmlns="http://www.w3.org/2000/svg"
     width="14.2222in" height="21.3333in"
     viewBox="0 0 1024 1536">
  <path id="Front_Hands"
        fill="none" stroke="black" stroke-width="1"
        d="M 98.00,781.00
           C 98.00,781.00 100.55,796.45 100.55,796.45
             100.55,796.45 100.36,815.27 100.36,815.27
             100.36,815.27 97.36,838.91 97.36,838.91
             97.36,838.91 95.91,872.55 95.91,872.55
             95.91,872.55 94.91,883.55 94.91,883.73
             94.91,883.91 89.73,887.82 89.45,887.82
             89.18,887.82 85.82,885.09 85.82,885.00
             85.82,884.91 83.55,877.36 83.55,877.36
             83.55,877.36 83.55,868.09 83.55,868.09
             83.55,868.09 81.45,859.73 81.45,859.73
             81.45,859.73 78.45,869.73 78.45,869.82
             78.45,869.91 77.18,881.00 77.18,881.09
             77.18,881.18 75.18,892.55 75.18,892.55
             75.18,892.55 71.73,898.36 71.73,898.45
             71.73,898.55 66.45,898.73 66.45,898.73
             66.45,898.73 64.64,894.82 64.64,894.73
             64.64,894.64 64.27,888.27 64.27,888.27
             64.27,888.27 64.45,875.82 64.45,875.82
             64.45,875.82 64.45,863.45 64.45,863.45
             64.45,863.45 63.27,872.18 63.27,872.18
             63.27,872.18 60.27,887.45 60.27,887.45
             60.27,887.45 54.82,899.91 54.82,899.91
             54.82,899.91 51.00,900.64 50.91,900.64
             50.82,900.64 47.36,898.27 47.36,898.18
             47.36,898.09 47.45,890.45 47.45,890.45
             47.45,890.45 47.73,880.36 47.73,880.36
             47.73,880.36 48.82,868.00 48.82,868.00
             48.82,868.00 48.18,857.18 48.18,857.18
             48.18,857.18 45.00,865.55 45.00,865.55
             45.00,865.55 40.91,879.09 40.91,879.09
             40.91,879.09 36.36,887.36 36.36,887.36
             36.36,887.36 32.09,889.64 32.00,889.64
             31.91,889.64 28.82,887.36 28.73,887.27
             28.64,887.18 27.91,881.45 27.91,881.18
             27.91,880.91 31.45,865.00 31.45,865.00
             31.45,865.00 36.27,840.82 36.27,840.82
             36.27,840.82 38.36,828.82 38.36,828.82
             38.36,828.82 33.73,833.64 33.73,833.64
             33.73,833.64 27.55,840.09 27.55,840.18
             27.55,840.27 20.27,843.73 19.91,843.64
             19.55,843.55 15.09,841.55 15.09,841.55
             15.09,841.55 14.55,836.82 14.55,836.82
             14.55,836.82 19.09,828.73 19.09,828.73
             19.09,828.73 23.09,821.55 23.09,821.55
             23.09,821.55 28.36,810.00 28.55,810.00
             28.73,810.00 34.91,792.73 34.91,792.73
             34.91,792.73 46.18,778.55 46.18,778.55
             46.18,778.55 55.88,768.38 55.88,768.38
             55.88,768.38 97.50,773.00 97.50,773.00
             97.50,773.00 98.00,781.00 98.00,781.00 Z
           M 475.62,780.50
           C 475.62,780.50 485.25,791.75 485.25,791.75
             485.25,791.75 491.50,803.62 491.50,803.62
             491.50,803.62 494.88,814.62 494.88,814.62
             494.88,814.62 500.50,826.38 500.50,826.38
             500.50,826.38 506.75,833.75 506.75,833.75
             506.75,833.75 507.00,839.12 507.00,839.12
             507.00,839.12 504.62,843.25 504.62,843.25
             504.62,843.25 499.62,843.12 499.75,843.12
             499.88,843.12 491.88,838.12 491.75,838.12
             491.62,838.12 486.25,832.62 486.25,832.50
             486.25,832.38 484.00,832.25 484.00,832.25
             484.00,832.25 487.88,854.62 487.88,854.62
             487.88,854.62 492.00,873.25 492.00,873.25
             492.00,873.25 492.75,884.25 492.75,884.25
             492.75,884.25 490.38,889.38 490.38,889.38
             490.38,889.38 487.00,890.12 486.62,890.00
             486.25,889.88 482.88,885.00 482.75,884.88
             482.62,884.75 479.00,876.50 479.00,876.50
             479.00,876.50 477.00,866.62 477.00,866.62
             477.00,866.62 472.62,858.12 472.62,858.12
             472.62,858.12 471.88,867.25 471.88,867.25
             471.88,867.25 473.62,880.75 473.62,880.75
             473.62,880.75 474.18,890.09 474.18,890.09
             474.18,890.09 473.55,897.09 473.55,897.09
             473.55,897.09 471.55,900.36 471.55,900.45
             471.55,900.55 466.27,900.55 466.27,900.55
             466.27,900.55 463.64,896.27 463.64,896.27
             463.64,896.27 460.73,886.73 460.73,886.73
             460.73,886.73 457.91,877.00 457.91,877.00
             457.91,877.00 457.36,885.27 457.18,885.55
             457.00,885.82 457.00,894.00 457.00,894.27
             457.00,894.55 454.91,898.73 454.91,898.82
             454.91,898.91 449.64,899.00 449.45,898.82
             449.27,898.64 446.55,893.64 446.55,893.36
             446.55,893.09 444.36,884.09 444.36,883.82
             444.36,883.55 443.55,875.91 443.55,875.91
             443.55,875.91 441.55,863.82 441.55,863.82
             441.55,863.82 439.27,855.91 439.27,855.91
             439.27,855.91 438.00,864.45 437.91,864.73
             437.82,865.00 437.45,875.18 437.45,875.27
             437.45,875.36 436.27,883.55 436.27,883.55
             436.27,883.55 433.64,887.64 433.64,887.64
             433.64,887.64 429.00,887.36 429.00,887.36
             429.00,887.36 426.64,884.55 426.55,884.45
             426.45,884.36 425.64,878.36 425.64,878.27
             425.64,878.18 424.64,860.45 424.64,860.45
             424.64,860.45 424.00,840.00 424.00,839.91
             424.00,839.82 422.36,824.45 422.36,824.36
             422.36,824.27 420.64,808.55 420.64,808.55
             420.64,808.55 421.09,795.09 421.09,795.00
             421.09,794.91 424.88,776.50 424.88,776.50
             424.88,776.50 467.88,771.00 467.88,771.00
             467.88,771.00 475.62,780.50 475.62,780.50 Z" />
</svg>
