<?xml version="1.0" encoding="UTF-8" standalone="no"?>
<!DOCTYPE svg PUBLIC "-//W3C//DTD SVG 20010904//EN"
              "http://www.w3.org/TR/2001/REC-SVG-20010904/DTD/svg10.dtd">

<svg xmlns="http://www.w3.org/2000/svg"
     width="14.2222in" height="21.3333in"
     viewBox="0 0 1024 1536">
  <path id="Front_UpperArms"
        fill="none" stroke="black" stroke-width="1"
        d="M 86.55,536.91
           C 86.55,536.91 91.09,474.73 91.09,474.73
             91.09,474.73 149.82,474.91 149.82,474.91
             149.82,474.91 148.91,511.09 148.91,511.09
             148.91,511.09 141.82,549.27 141.82,549.27
             141.82,549.27 136.36,592.91 136.36,592.91
             136.36,592.91 79.82,593.09 79.82,593.09
             79.82,593.09 82.73,583.09 82.73,583.09
             82.73,583.09 84.18,564.00 84.18,564.00
             84.18,564.00 86.55,536.91 86.55,536.91 Z
           M 435.27,543.27
           C 435.27,543.27 438.75,583.88 438.75,583.88
             438.75,583.88 441.25,592.75 441.25,592.75
             441.25,592.75 384.75,592.88 384.75,592.88
             384.75,592.88 380.62,559.00 380.62,559.00
             380.62,559.00 373.38,508.62 373.38,508.62
             373.38,508.62 371.88,474.75 371.88,474.75
             371.88,474.75 430.38,474.75 430.38,474.75
             430.38,474.75 435.27,543.27 435.27,543.27 Z" />
</svg>
