<?xml version="1.0" encoding="UTF-8" standalone="no"?>
<!DOCTYPE svg PUBLIC "-//W3C//DTD SVG 20010904//EN"
              "http://www.w3.org/TR/2001/REC-SVG-20010904/DTD/svg10.dtd">

<svg xmlns="http://www.w3.org/2000/svg"
     width="14.2222in" height="21.3333in"
     viewBox="0 0 1024 1536">
  <path id="Front_Thighs"
        fill="none" stroke="black" stroke-width="1"
        d="M 144.00,931.00
           C 144.00,931.00 140.75,903.38 140.75,903.38
             140.75,903.38 138.00,878.00 138.00,878.00
             138.00,878.00 136.00,851.62 136.00,851.62
             136.00,851.62 134.88,819.25 134.88,819.25
             134.88,819.25 250.62,819.00 250.62,819.00
             250.62,819.00 250.00,836.12 250.00,836.25
             250.00,836.38 248.50,866.12 248.50,866.12
             248.50,866.12 246.50,885.75 246.50,886.00
             246.50,886.25 243.12,915.12 243.12,915.12
             243.12,915.12 241.00,941.00 241.00,941.12
             241.00,941.25 238.62,963.25 238.62,963.38
             238.62,963.50 237.38,998.12 237.38,998.38
             237.38,998.62 236.75,1020.88 236.75,1020.88
             236.75,1020.88 156.00,1020.82 156.00,1020.82
             156.00,1020.82 154.09,1003.09 154.09,1003.09
             154.09,1003.09 151.82,985.82 151.82,985.73
             151.82,985.64 148.12,959.25 148.12,959.25
             148.12,959.25 144.00,931.00 144.00,931.00 Z
           M 279.25,926.25
           C 279.25,926.25 275.25,889.25 275.25,889.25
             275.25,889.25 273.25,861.00 273.25,861.00
             273.25,861.00 271.75,835.50 271.75,835.50
             271.75,835.50 271.00,819.00 271.00,819.00
             271.00,819.00 385.75,819.00 385.75,819.00
             385.75,819.00 386.50,850.00 386.50,850.00
             386.50,850.00 383.25,883.00 383.25,883.00
             383.25,883.00 379.00,920.50 379.00,920.50
             379.00,920.50 375.27,944.18 375.27,944.18
             375.27,944.18 371.82,969.45 371.82,969.45
             371.82,969.45 369.27,986.18 369.27,986.18
             369.27,986.18 366.91,999.82 366.91,999.82
             366.91,999.82 365.64,1011.09 365.64,1011.09
             365.64,1011.09 365.45,1020.91 365.45,1020.91
             365.45,1020.91 285.27,1021.09 285.27,1021.09
             285.27,1021.09 284.00,1003.82 284.00,1003.82
             284.00,1003.82 282.73,969.27 282.73,969.27
             282.73,969.27 280.91,943.64 280.91,943.64
             280.91,943.64 279.25,926.25 279.25,926.25 Z" />
</svg>
