<?xml version="1.0" encoding="UTF-8" standalone="no"?>
<!DOCTYPE svg PUBLIC "-//W3C//DTD SVG 20010904//EN"
              "http://www.w3.org/TR/2001/REC-SVG-20010904/DTD/svg10.dtd">

<svg xmlns="http://www.w3.org/2000/svg"
     width="14.2222in" height="21.3333in"
     viewBox="0 0 1024 1536">
  <path id="Front_Feet"
        fill="none" stroke="black" stroke-width="1"
        d="M 305.00,1336.00
           C 305.00,1336.00 355.27,1336.00 355.27,1336.00
             355.27,1336.00 354.36,1345.64 354.36,1345.64
             354.36,1345.64 358.36,1357.09 358.36,1357.09
             358.36,1357.09 374.36,1384.91 374.36,1384.91
             374.36,1384.91 382.73,1396.00 382.73,1396.00
             382.73,1396.00 382.73,1403.82 382.91,1404.36
             383.09,1404.91 379.45,1408.55 379.45,1408.55
             379.45,1408.55 373.64,1406.36 373.64,1406.36
             373.64,1406.36 370.00,1411.09 370.00,1411.27
             370.00,1411.45 363.82,1414.55 363.82,1414.55
             363.82,1414.55 357.27,1412.73 357.27,1412.73
             357.27,1412.73 352.36,1415.82 352.36,1415.82
             352.36,1415.82 342.73,1417.82 342.73,1417.82
             342.73,1417.82 336.91,1414.55 336.73,1414.55
             336.55,1414.55 332.00,1417.09 332.00,1417.09
             332.00,1417.09 326.00,1418.73 326.00,1418.73
             326.00,1418.73 313.82,1414.73 313.82,1414.73
             313.82,1414.73 308.73,1407.82 308.73,1407.64
             308.73,1407.45 304.73,1400.18 304.73,1400.18
             304.73,1400.18 302.55,1388.18 302.55,1388.18
             302.55,1388.18 302.73,1372.00 302.73,1372.00
             302.73,1372.00 304.18,1362.18 304.18,1362.18
             304.18,1362.18 306.36,1347.27 306.36,1347.27
             306.36,1347.27 305.00,1336.00 305.00,1336.00 Z
           M 216.55,1353.45
           C 216.55,1353.45 218.73,1370.91 218.73,1370.91
             218.73,1370.91 219.82,1387.27 219.82,1387.27
             219.82,1387.27 217.82,1398.00 217.82,1398.00
             217.82,1398.00 213.82,1409.45 213.82,1409.45
             213.82,1409.45 208.36,1415.82 208.18,1415.82
             208.00,1415.82 200.55,1418.18 200.55,1418.18
             200.55,1418.18 192.36,1417.82 192.36,1417.82
             192.36,1417.82 186.18,1414.73 185.82,1414.73
             185.45,1414.73 179.82,1417.09 179.45,1417.09
             179.09,1417.09 172.73,1416.73 172.55,1416.73
             172.36,1416.73 167.09,1414.91 166.91,1414.91
             166.73,1414.91 164.18,1412.55 164.18,1412.55
             164.18,1412.55 158.00,1413.45 158.00,1413.45
             158.00,1413.45 150.55,1410.36 150.36,1410.18
             150.18,1410.00 148.55,1406.18 148.55,1406.18
             148.55,1406.18 144.00,1408.00 144.00,1408.00
             144.00,1408.00 140.18,1405.45 140.18,1405.45
             140.18,1405.45 138.73,1399.27 138.73,1399.27
             138.73,1399.27 143.09,1388.55 143.09,1388.55
             143.09,1388.55 153.82,1372.73 153.82,1372.73
             153.82,1372.73 163.64,1355.09 163.64,1354.91
             163.64,1354.73 167.45,1346.00 167.45,1346.00
             167.45,1346.00 167.00,1337.33 167.00,1337.33
             167.00,1337.33 216.91,1336.00 216.91,1336.00
             216.91,1336.00 216.55,1353.45 216.55,1353.45 Z" />
</svg>
